# xmcd
#
# Track frame offsets:
#	150
#	17689
#	35263
#	55725
#	73168
#	87185
#	105388
#	125752
#	143624
#	157337
#
# Disc length: 2349 seconds
#
# Revision: 0
# Processed by: cddbd v1.5.2PL0 Copyright (c) Steve Scherf et al.
# Submitted via: dBpowerAMP V4.0
#
DISCID=83092b0a
DTITLE=Alan Jackson - High Mileage
DYEAR=1900
DGENRE=Country
TTITLE0=01.Right On The Money
TTITLE1=02.Gone Crazy
TTITLE2=03.Little Man
TTITLE3=04.What A Day Yesterday Was
TTITLE4=05.Hurtin´Comes Easy
TTITLE5=06.I´ll Go On Loving You
TTITLE6=07.Another Good Reason
TTITLE7=08.A Woman´s Love
TTITLE8=09.Dancin´All Around It
TTITLE9=10.Amarillo
EXTD=
EXTT0=
EXTT1=
EXTT2=
EXTT3=
EXTT4=
EXTT5=
EXTT6=
EXTT7=
EXTT8=
EXTT9=
PLAYORDER=
